G04 Layer_Color=8421504*
%FSLAX25Y25*%
%MOIN*%
G70*
G01*
G75*
%ADD10R,0.04724X0.05906*%
%ADD11R,0.04400X0.04500*%
%ADD12R,0.02362X0.03543*%
%ADD13R,0.04500X0.04400*%
%ADD14R,0.13583X0.13583*%
%ADD15R,0.01102X0.03347*%
%ADD16R,0.03347X0.01102*%
%ADD17R,0.06457X0.03937*%
%ADD18R,0.03937X0.06457*%
D10*
X10000Y75157D02*
D03*
Y44842D02*
D03*
D11*
X19700Y27000D02*
D03*
X26300D02*
D03*
X19200Y19000D02*
D03*
X26800D02*
D03*
X18300Y102500D02*
D03*
X11700D02*
D03*
Y95000D02*
D03*
X18300D02*
D03*
X76200Y38000D02*
D03*
X83800D02*
D03*
X67800D02*
D03*
X60200D02*
D03*
X51200Y66500D02*
D03*
X58800D02*
D03*
X51200Y75500D02*
D03*
X58800D02*
D03*
X85800Y70500D02*
D03*
X78200D02*
D03*
X85800Y79000D02*
D03*
X78200D02*
D03*
X101800Y70500D02*
D03*
X94200D02*
D03*
X101800Y79000D02*
D03*
X94200D02*
D03*
X117800Y70500D02*
D03*
X110200D02*
D03*
X117800Y79000D02*
D03*
X110200D02*
D03*
X83200Y107000D02*
D03*
X90800D02*
D03*
X83200Y98000D02*
D03*
X90800D02*
D03*
X189200Y110000D02*
D03*
X196800D02*
D03*
X189200Y118000D02*
D03*
X196800D02*
D03*
X174300Y165000D02*
D03*
X167700D02*
D03*
X174300Y156000D02*
D03*
X167700D02*
D03*
Y147000D02*
D03*
X174300D02*
D03*
D12*
X11260Y115472D02*
D03*
X18740D02*
D03*
X15000Y124528D02*
D03*
D13*
X154000Y101800D02*
D03*
Y94200D02*
D03*
X129000Y109800D02*
D03*
Y102200D02*
D03*
X121000Y109800D02*
D03*
Y102200D02*
D03*
X113000Y109800D02*
D03*
Y102200D02*
D03*
X171000Y101800D02*
D03*
Y94200D02*
D03*
X163000Y101800D02*
D03*
Y94200D02*
D03*
X137000Y101800D02*
D03*
Y94200D02*
D03*
X105000Y117800D02*
D03*
Y110200D02*
D03*
X213000Y101800D02*
D03*
Y94200D02*
D03*
X205000Y101800D02*
D03*
Y94200D02*
D03*
X154000Y117800D02*
D03*
Y110200D02*
D03*
X77500Y126300D02*
D03*
Y118700D02*
D03*
X70000Y126300D02*
D03*
Y118700D02*
D03*
X170000Y38300D02*
D03*
Y31700D02*
D03*
X140000D02*
D03*
Y38300D02*
D03*
X150000Y31700D02*
D03*
Y38300D02*
D03*
X160000Y31700D02*
D03*
Y38300D02*
D03*
X197000Y101300D02*
D03*
Y94700D02*
D03*
X188000D02*
D03*
Y101300D02*
D03*
X179000Y94300D02*
D03*
Y87700D02*
D03*
D14*
X62500Y97500D02*
D03*
D15*
X69390Y87756D02*
D03*
X67421D02*
D03*
X65453D02*
D03*
X63484D02*
D03*
X61516D02*
D03*
X59547D02*
D03*
X57579D02*
D03*
X55610D02*
D03*
Y107244D02*
D03*
X57579D02*
D03*
X59547D02*
D03*
X61516D02*
D03*
X63484D02*
D03*
X65453D02*
D03*
X67421D02*
D03*
X69390D02*
D03*
D16*
X52756Y90610D02*
D03*
Y92579D02*
D03*
Y94547D02*
D03*
Y96516D02*
D03*
Y98484D02*
D03*
Y100453D02*
D03*
Y102421D02*
D03*
Y104390D02*
D03*
X72244D02*
D03*
Y102421D02*
D03*
Y100453D02*
D03*
Y98484D02*
D03*
Y96516D02*
D03*
Y94547D02*
D03*
Y92579D02*
D03*
Y90610D02*
D03*
D17*
X145000Y101858D02*
D03*
Y94142D02*
D03*
D18*
X98142Y102000D02*
D03*
X105858D02*
D03*
M02*
