G04 Layer_Physical_Order=2*
G04 Layer_Color=16711680*
%FSLAX25Y25*%
%MOIN*%
G70*
G01*
G75*
%ADD19C,0.01000*%
%ADD20C,0.02000*%
%ADD21C,0.05000*%
%ADD22C,0.05906*%
%ADD23R,0.05906X0.05906*%
%ADD24C,0.06299*%
%ADD25R,0.06299X0.06299*%
%ADD26C,0.12500*%
%ADD27R,0.05906X0.05906*%
%ADD28C,0.08661*%
%ADD29C,0.07874*%
%ADD30C,0.05000*%
%ADD31C,0.02362*%
%ADD32C,0.01969*%
G36*
X200000Y137034D02*
X199130Y136948D01*
X197763Y136534D01*
X196504Y135860D01*
X195400Y134954D01*
X194494Y133851D01*
X193821Y132591D01*
X193406Y131224D01*
X193266Y129803D01*
X193406Y128382D01*
X193821Y127015D01*
X194494Y125756D01*
X195400Y124652D01*
X196504Y123746D01*
X197763Y123073D01*
X199130Y122658D01*
X200000Y122572D01*
Y76942D01*
X199312Y76656D01*
X198198Y75802D01*
X197344Y74688D01*
X196807Y73392D01*
X196689Y72500D01*
X202000D01*
Y71500D01*
X196689D01*
X196807Y70608D01*
X197344Y69312D01*
X198198Y68198D01*
X199312Y67344D01*
X200000Y67058D01*
Y56941D01*
X199312Y56656D01*
X198198Y55802D01*
X197344Y54688D01*
X196807Y53392D01*
X196689Y52500D01*
X202000D01*
Y51500D01*
X196689D01*
X196807Y50608D01*
X197344Y49312D01*
X198198Y48198D01*
X199312Y47344D01*
X200000Y47058D01*
Y5000D01*
X78537D01*
X78346Y5462D01*
X89025Y16141D01*
X90000Y16013D01*
X91032Y16149D01*
X91993Y16547D01*
X92819Y17181D01*
X93453Y18007D01*
X93851Y18968D01*
X93987Y20000D01*
X93851Y21032D01*
X93453Y21993D01*
X92819Y22819D01*
X91993Y23453D01*
X91032Y23851D01*
X90000Y23987D01*
X88968Y23851D01*
X88007Y23453D01*
X87181Y22819D01*
X86547Y21993D01*
X86149Y21032D01*
X86013Y20000D01*
X86142Y19025D01*
X74155Y7039D01*
X25845D01*
X7039Y25845D01*
Y154155D01*
X23695Y170811D01*
X28150D01*
Y179110D01*
X19850D01*
Y172734D01*
X5462Y158346D01*
X5000Y158537D01*
Y225000D01*
X200000D01*
Y137034D01*
D02*
G37*
%LPC*%
G36*
X44500Y213921D02*
Y210500D01*
X47921D01*
X47851Y211032D01*
X47453Y211993D01*
X46819Y212819D01*
X45993Y213453D01*
X45032Y213851D01*
X44500Y213921D01*
D02*
G37*
G36*
X43500D02*
X42968Y213851D01*
X42007Y213453D01*
X41181Y212819D01*
X40547Y211993D01*
X40149Y211032D01*
X40079Y210500D01*
X43500D01*
Y213921D01*
D02*
G37*
G36*
X47921Y209500D02*
X44500D01*
Y206079D01*
X45032Y206149D01*
X45993Y206547D01*
X46819Y207181D01*
X47453Y208007D01*
X47851Y208968D01*
X47921Y209500D01*
D02*
G37*
G36*
X43500D02*
X40079D01*
X40149Y208968D01*
X40547Y208007D01*
X41181Y207181D01*
X42007Y206547D01*
X42968Y206149D01*
X43500Y206079D01*
Y209500D01*
D02*
G37*
G36*
X123953Y213953D02*
X116047D01*
Y206047D01*
X123953D01*
Y213953D01*
D02*
G37*
G36*
X17953D02*
X10047D01*
Y206047D01*
X17953D01*
Y213953D01*
D02*
G37*
G36*
X190000Y213987D02*
X188968Y213851D01*
X188007Y213453D01*
X187181Y212819D01*
X186547Y211993D01*
X186149Y211032D01*
X186013Y210000D01*
X186149Y208968D01*
X186547Y208007D01*
X187181Y207181D01*
X188007Y206547D01*
X188968Y206149D01*
X190000Y206013D01*
X191032Y206149D01*
X191993Y206547D01*
X192819Y207181D01*
X193453Y208007D01*
X193851Y208968D01*
X193987Y210000D01*
X193851Y211032D01*
X193453Y211993D01*
X192819Y212819D01*
X191993Y213453D01*
X191032Y213851D01*
X190000Y213987D01*
D02*
G37*
G36*
X180000D02*
X178968Y213851D01*
X178007Y213453D01*
X177181Y212819D01*
X176547Y211993D01*
X176149Y211032D01*
X176013Y210000D01*
X176149Y208968D01*
X176547Y208007D01*
X177181Y207181D01*
X178007Y206547D01*
X178968Y206149D01*
X180000Y206013D01*
X181032Y206149D01*
X181993Y206547D01*
X182819Y207181D01*
X183453Y208007D01*
X183851Y208968D01*
X183987Y210000D01*
X183851Y211032D01*
X183453Y211993D01*
X182819Y212819D01*
X181993Y213453D01*
X181032Y213851D01*
X180000Y213987D01*
D02*
G37*
G36*
X170000D02*
X168968Y213851D01*
X168007Y213453D01*
X167181Y212819D01*
X166547Y211993D01*
X166149Y211032D01*
X166013Y210000D01*
X166149Y208968D01*
X166547Y208007D01*
X167181Y207181D01*
X168007Y206547D01*
X168968Y206149D01*
X170000Y206013D01*
X171032Y206149D01*
X171993Y206547D01*
X172819Y207181D01*
X173453Y208007D01*
X173851Y208968D01*
X173987Y210000D01*
X173851Y211032D01*
X173453Y211993D01*
X172819Y212819D01*
X171993Y213453D01*
X171032Y213851D01*
X170000Y213987D01*
D02*
G37*
G36*
X160000D02*
X158968Y213851D01*
X158007Y213453D01*
X157181Y212819D01*
X156547Y211993D01*
X156149Y211032D01*
X156013Y210000D01*
X156149Y208968D01*
X156547Y208007D01*
X157181Y207181D01*
X158007Y206547D01*
X158968Y206149D01*
X160000Y206013D01*
X161032Y206149D01*
X161993Y206547D01*
X162819Y207181D01*
X163453Y208007D01*
X163851Y208968D01*
X163987Y210000D01*
X163851Y211032D01*
X163453Y211993D01*
X162819Y212819D01*
X161993Y213453D01*
X161032Y213851D01*
X160000Y213987D01*
D02*
G37*
G36*
X150000D02*
X148968Y213851D01*
X148007Y213453D01*
X147181Y212819D01*
X146547Y211993D01*
X146149Y211032D01*
X146013Y210000D01*
X146149Y208968D01*
X146547Y208007D01*
X147181Y207181D01*
X148007Y206547D01*
X148968Y206149D01*
X150000Y206013D01*
X151032Y206149D01*
X151993Y206547D01*
X152819Y207181D01*
X153453Y208007D01*
X153851Y208968D01*
X153987Y210000D01*
X153851Y211032D01*
X153453Y211993D01*
X152819Y212819D01*
X151993Y213453D01*
X151032Y213851D01*
X150000Y213987D01*
D02*
G37*
G36*
X140000D02*
X138968Y213851D01*
X138007Y213453D01*
X137181Y212819D01*
X136547Y211993D01*
X136149Y211032D01*
X136013Y210000D01*
X136149Y208968D01*
X136547Y208007D01*
X137181Y207181D01*
X138007Y206547D01*
X138968Y206149D01*
X140000Y206013D01*
X141032Y206149D01*
X141993Y206547D01*
X142819Y207181D01*
X143453Y208007D01*
X143851Y208968D01*
X143987Y210000D01*
X143851Y211032D01*
X143453Y211993D01*
X142819Y212819D01*
X141993Y213453D01*
X141032Y213851D01*
X140000Y213987D01*
D02*
G37*
G36*
X130000D02*
X128968Y213851D01*
X128007Y213453D01*
X127181Y212819D01*
X126547Y211993D01*
X126149Y211032D01*
X126013Y210000D01*
X126149Y208968D01*
X126547Y208007D01*
X127181Y207181D01*
X128007Y206547D01*
X128968Y206149D01*
X130000Y206013D01*
X131032Y206149D01*
X131993Y206547D01*
X132819Y207181D01*
X133453Y208007D01*
X133851Y208968D01*
X133987Y210000D01*
X133851Y211032D01*
X133453Y211993D01*
X132819Y212819D01*
X131993Y213453D01*
X131032Y213851D01*
X130000Y213987D01*
D02*
G37*
G36*
X104000D02*
X102968Y213851D01*
X102007Y213453D01*
X101181Y212819D01*
X100547Y211993D01*
X100149Y211032D01*
X100013Y210000D01*
X100149Y208968D01*
X100547Y208007D01*
X101181Y207181D01*
X102007Y206547D01*
X102968Y206149D01*
X104000Y206013D01*
X105032Y206149D01*
X105993Y206547D01*
X106819Y207181D01*
X107453Y208007D01*
X107851Y208968D01*
X107987Y210000D01*
X107851Y211032D01*
X107453Y211993D01*
X106819Y212819D01*
X105993Y213453D01*
X105032Y213851D01*
X104000Y213987D01*
D02*
G37*
G36*
X94000D02*
X92968Y213851D01*
X92007Y213453D01*
X91181Y212819D01*
X90547Y211993D01*
X90149Y211032D01*
X90013Y210000D01*
X90149Y208968D01*
X90547Y208007D01*
X91181Y207181D01*
X92007Y206547D01*
X92968Y206149D01*
X94000Y206013D01*
X95032Y206149D01*
X95993Y206547D01*
X96819Y207181D01*
X97453Y208007D01*
X97851Y208968D01*
X97987Y210000D01*
X97851Y211032D01*
X97453Y211993D01*
X96819Y212819D01*
X95993Y213453D01*
X95032Y213851D01*
X94000Y213987D01*
D02*
G37*
G36*
X24000D02*
X22968Y213851D01*
X22007Y213453D01*
X21181Y212819D01*
X20547Y211993D01*
X20149Y211032D01*
X20013Y210000D01*
X20149Y208968D01*
X20547Y208007D01*
X21181Y207181D01*
X22007Y206547D01*
X22968Y206149D01*
X24000Y206013D01*
X25032Y206149D01*
X25993Y206547D01*
X26819Y207181D01*
X27453Y208007D01*
X27851Y208968D01*
X27987Y210000D01*
X27851Y211032D01*
X27453Y211993D01*
X26819Y212819D01*
X25993Y213453D01*
X25032Y213851D01*
X24000Y213987D01*
D02*
G37*
G36*
X185500Y193464D02*
Y190500D01*
X188464D01*
X188410Y190914D01*
X188057Y191765D01*
X187496Y192496D01*
X186765Y193057D01*
X185914Y193410D01*
X185500Y193464D01*
D02*
G37*
G36*
X184500D02*
X184086Y193410D01*
X183235Y193057D01*
X182504Y192496D01*
X181943Y191765D01*
X181590Y190914D01*
X181536Y190500D01*
X184500D01*
Y193464D01*
D02*
G37*
G36*
X160500D02*
Y190500D01*
X163464D01*
X163410Y190914D01*
X163057Y191765D01*
X162496Y192496D01*
X161765Y193057D01*
X160914Y193410D01*
X160500Y193464D01*
D02*
G37*
G36*
X159500D02*
X159086Y193410D01*
X158235Y193057D01*
X157504Y192496D01*
X156943Y191765D01*
X156590Y190914D01*
X156536Y190500D01*
X159500D01*
Y193464D01*
D02*
G37*
G36*
X188464Y189500D02*
X185500D01*
Y186536D01*
X185914Y186590D01*
X186765Y186943D01*
X187496Y187504D01*
X188057Y188235D01*
X188410Y189086D01*
X188464Y189500D01*
D02*
G37*
G36*
X184500D02*
X181536D01*
X181590Y189086D01*
X181943Y188235D01*
X182504Y187504D01*
X183235Y186943D01*
X184086Y186590D01*
X184500Y186536D01*
Y189500D01*
D02*
G37*
G36*
X163464D02*
X160500D01*
Y186536D01*
X160914Y186590D01*
X161765Y186943D01*
X162496Y187504D01*
X163057Y188235D01*
X163410Y189086D01*
X163464Y189500D01*
D02*
G37*
G36*
X159500D02*
X156536D01*
X156590Y189086D01*
X156943Y188235D01*
X157504Y187504D01*
X158235Y186943D01*
X159086Y186590D01*
X159500Y186536D01*
Y189500D01*
D02*
G37*
G36*
X54000Y213987D02*
X52968Y213851D01*
X52007Y213453D01*
X51181Y212819D01*
X50547Y211993D01*
X50149Y211032D01*
X50013Y210000D01*
X50149Y208968D01*
X50547Y208007D01*
X51181Y207181D01*
X52007Y206547D01*
X52968Y206149D01*
X53471Y206083D01*
Y188155D01*
X53235Y188057D01*
X52504Y187496D01*
X51943Y186765D01*
X51590Y185914D01*
X51470Y185000D01*
X51590Y184086D01*
X51943Y183235D01*
X52504Y182504D01*
X53235Y181943D01*
X54086Y181590D01*
X55000Y181470D01*
X55914Y181590D01*
X56765Y181943D01*
X57496Y182504D01*
X58057Y183235D01*
X58410Y184086D01*
X58530Y185000D01*
X58410Y185914D01*
X58057Y186765D01*
X57496Y187496D01*
X56765Y188057D01*
X56529Y188155D01*
Y206959D01*
X56819Y207181D01*
X57453Y208007D01*
X57851Y208968D01*
X57987Y210000D01*
X57851Y211032D01*
X57453Y211993D01*
X56819Y212819D01*
X55993Y213453D01*
X55032Y213851D01*
X54000Y213987D01*
D02*
G37*
G36*
X185500Y183464D02*
Y180500D01*
X188464D01*
X188410Y180914D01*
X188057Y181765D01*
X187496Y182496D01*
X186765Y183057D01*
X185914Y183410D01*
X185500Y183464D01*
D02*
G37*
G36*
X184500D02*
X184086Y183410D01*
X183235Y183057D01*
X182504Y182496D01*
X181943Y181765D01*
X181590Y180914D01*
X181536Y180500D01*
X184500D01*
Y183464D01*
D02*
G37*
G36*
X160500D02*
Y180500D01*
X163464D01*
X163410Y180914D01*
X163057Y181765D01*
X162496Y182496D01*
X161765Y183057D01*
X160914Y183410D01*
X160500Y183464D01*
D02*
G37*
G36*
X159500D02*
X159086Y183410D01*
X158235Y183057D01*
X157504Y182496D01*
X156943Y181765D01*
X156590Y180914D01*
X156536Y180500D01*
X159500D01*
Y183464D01*
D02*
G37*
G36*
X188464Y179500D02*
X185500D01*
Y176536D01*
X185914Y176590D01*
X186765Y176943D01*
X187496Y177504D01*
X188057Y178235D01*
X188410Y179086D01*
X188464Y179500D01*
D02*
G37*
G36*
X184500D02*
X181536D01*
X181590Y179086D01*
X181943Y178235D01*
X182504Y177504D01*
X183235Y176943D01*
X184086Y176590D01*
X184500Y176536D01*
Y179500D01*
D02*
G37*
G36*
X163464D02*
X160500D01*
Y176536D01*
X160914Y176590D01*
X161765Y176943D01*
X162496Y177504D01*
X163057Y178235D01*
X163410Y179086D01*
X163464Y179500D01*
D02*
G37*
G36*
X159500D02*
X156536D01*
X156590Y179086D01*
X156943Y178235D01*
X157504Y177504D01*
X158235Y176943D01*
X159086Y176590D01*
X159500Y176536D01*
Y179500D01*
D02*
G37*
G36*
X55500Y178464D02*
Y175500D01*
X58464D01*
X58410Y175914D01*
X58057Y176765D01*
X57496Y177496D01*
X56765Y178057D01*
X55914Y178410D01*
X55500Y178464D01*
D02*
G37*
G36*
X54500D02*
X54086Y178410D01*
X53235Y178057D01*
X52504Y177496D01*
X51943Y176765D01*
X51590Y175914D01*
X51536Y175500D01*
X54500D01*
Y178464D01*
D02*
G37*
G36*
X84000Y213987D02*
X82968Y213851D01*
X82007Y213453D01*
X81181Y212819D01*
X80547Y211993D01*
X80149Y211032D01*
X80013Y210000D01*
X80149Y208968D01*
X80547Y208007D01*
X81181Y207181D01*
X82007Y206547D01*
X82968Y206149D01*
X84000Y206013D01*
X85032Y206149D01*
X85496Y206341D01*
X113471Y178366D01*
Y172792D01*
X112971Y172622D01*
X112819Y172819D01*
X111993Y173453D01*
X111032Y173851D01*
X110000Y173987D01*
X108968Y173851D01*
X108007Y173453D01*
X107181Y172819D01*
X107029Y172622D01*
X106529Y172792D01*
Y179000D01*
X106413Y179585D01*
X106081Y180081D01*
X77659Y208504D01*
X77851Y208968D01*
X77987Y210000D01*
X77851Y211032D01*
X77453Y211993D01*
X76819Y212819D01*
X75993Y213453D01*
X75032Y213851D01*
X74000Y213987D01*
X72968Y213851D01*
X72007Y213453D01*
X71181Y212819D01*
X70547Y211993D01*
X70149Y211032D01*
X70013Y210000D01*
X70149Y208968D01*
X70547Y208007D01*
X71181Y207181D01*
X72007Y206547D01*
X72968Y206149D01*
X74000Y206013D01*
X75032Y206149D01*
X75496Y206341D01*
X103471Y178366D01*
Y172792D01*
X102971Y172622D01*
X102819Y172819D01*
X101993Y173453D01*
X101032Y173851D01*
X100000Y173987D01*
X98968Y173851D01*
X98007Y173453D01*
X97181Y172819D01*
X97029Y172622D01*
X96529Y172792D01*
Y179000D01*
X96413Y179585D01*
X96081Y180081D01*
X67659Y208504D01*
X67851Y208968D01*
X67987Y210000D01*
X67851Y211032D01*
X67453Y211993D01*
X66819Y212819D01*
X65993Y213453D01*
X65032Y213851D01*
X64000Y213987D01*
X62968Y213851D01*
X62007Y213453D01*
X61181Y212819D01*
X60547Y211993D01*
X60149Y211032D01*
X60013Y210000D01*
X60149Y208968D01*
X60547Y208007D01*
X61181Y207181D01*
X62007Y206547D01*
X62968Y206149D01*
X64000Y206013D01*
X65032Y206149D01*
X65496Y206341D01*
X93471Y178366D01*
Y172792D01*
X92971Y172622D01*
X92819Y172819D01*
X91993Y173453D01*
X91032Y173851D01*
X90000Y173987D01*
X88968Y173851D01*
X88007Y173453D01*
X87181Y172819D01*
X86547Y171993D01*
X86149Y171032D01*
X86013Y170000D01*
X86149Y168968D01*
X86547Y168007D01*
X87181Y167181D01*
X88007Y166547D01*
X88968Y166149D01*
X90000Y166013D01*
X91032Y166149D01*
X91993Y166547D01*
X92819Y167181D01*
X92971Y167378D01*
X93471Y167209D01*
Y162792D01*
X92971Y162622D01*
X92819Y162819D01*
X91993Y163453D01*
X91032Y163851D01*
X90000Y163987D01*
X88968Y163851D01*
X88007Y163453D01*
X87181Y162819D01*
X86547Y161993D01*
X86149Y161032D01*
X86013Y160000D01*
X86149Y158968D01*
X86547Y158007D01*
X87181Y157181D01*
X88007Y156547D01*
X88968Y156149D01*
X90000Y156013D01*
X91032Y156149D01*
X91993Y156547D01*
X92819Y157181D01*
X92971Y157378D01*
X93471Y157209D01*
Y155633D01*
X91496Y153659D01*
X91032Y153851D01*
X90000Y153987D01*
X88968Y153851D01*
X88007Y153453D01*
X87181Y152819D01*
X86547Y151993D01*
X86149Y151032D01*
X86013Y150000D01*
X86149Y148968D01*
X86547Y148007D01*
X87181Y147181D01*
X88007Y146547D01*
X88968Y146149D01*
X90000Y146013D01*
X91032Y146149D01*
X91993Y146547D01*
X92819Y147181D01*
X93453Y148007D01*
X93851Y148968D01*
X93987Y150000D01*
X93851Y151032D01*
X93659Y151496D01*
X96081Y153919D01*
X96413Y154415D01*
X96529Y155000D01*
Y157209D01*
X97029Y157378D01*
X97181Y157181D01*
X98007Y156547D01*
X98968Y156149D01*
X100000Y156013D01*
X101032Y156149D01*
X101993Y156547D01*
X102819Y157181D01*
X102971Y157378D01*
X103471Y157209D01*
Y152792D01*
X102971Y152622D01*
X102819Y152819D01*
X101993Y153453D01*
X101032Y153851D01*
X100000Y153987D01*
X98968Y153851D01*
X98007Y153453D01*
X97181Y152819D01*
X96547Y151993D01*
X96149Y151032D01*
X96013Y150000D01*
X96149Y148968D01*
X96547Y148007D01*
X97181Y147181D01*
X98007Y146547D01*
X98968Y146149D01*
X100000Y146013D01*
X101032Y146149D01*
X101993Y146547D01*
X102819Y147181D01*
X102971Y147378D01*
X103471Y147208D01*
Y145633D01*
X99366Y141529D01*
X90633D01*
X83659Y148504D01*
X83851Y148968D01*
X83987Y150000D01*
X83851Y151032D01*
X83453Y151993D01*
X82819Y152819D01*
X81993Y153453D01*
X81032Y153851D01*
X80000Y153987D01*
X78968Y153851D01*
X78007Y153453D01*
X77181Y152819D01*
X76547Y151993D01*
X76149Y151032D01*
X76013Y150000D01*
X76149Y148968D01*
X76547Y148007D01*
X77181Y147181D01*
X78007Y146547D01*
X78968Y146149D01*
X80000Y146013D01*
X81032Y146149D01*
X81496Y146341D01*
X88919Y138919D01*
X89415Y138587D01*
X90000Y138471D01*
X100000D01*
X100585Y138587D01*
X101081Y138919D01*
X106081Y143919D01*
X106413Y144415D01*
X106529Y145000D01*
Y147208D01*
X107029Y147378D01*
X107181Y147181D01*
X108007Y146547D01*
X108968Y146149D01*
X110000Y146013D01*
X111032Y146149D01*
X111993Y146547D01*
X112819Y147181D01*
X113453Y148007D01*
X113851Y148968D01*
X113987Y150000D01*
X113851Y151032D01*
X113659Y151496D01*
X116081Y153919D01*
X116413Y154415D01*
X116529Y155000D01*
Y157209D01*
X117029Y157378D01*
X117181Y157181D01*
X118007Y156547D01*
X118968Y156149D01*
X120000Y156013D01*
X121032Y156149D01*
X121993Y156547D01*
X122819Y157181D01*
X123453Y158007D01*
X123851Y158968D01*
X123987Y160000D01*
X123851Y161032D01*
X123453Y161993D01*
X122819Y162819D01*
X121993Y163453D01*
X121032Y163851D01*
X120000Y163987D01*
X118968Y163851D01*
X118007Y163453D01*
X117181Y162819D01*
X117029Y162622D01*
X116529Y162792D01*
Y167209D01*
X117029Y167378D01*
X117181Y167181D01*
X118007Y166547D01*
X118968Y166149D01*
X120000Y166013D01*
X121032Y166149D01*
X121993Y166547D01*
X122819Y167181D01*
X123453Y168007D01*
X123851Y168968D01*
X123987Y170000D01*
X123851Y171032D01*
X123453Y171993D01*
X122819Y172819D01*
X121993Y173453D01*
X121032Y173851D01*
X120000Y173987D01*
X118968Y173851D01*
X118007Y173453D01*
X117181Y172819D01*
X117029Y172622D01*
X116529Y172792D01*
Y179000D01*
X116413Y179585D01*
X116081Y180081D01*
X87659Y208504D01*
X87851Y208968D01*
X87987Y210000D01*
X87851Y211032D01*
X87453Y211993D01*
X86819Y212819D01*
X85993Y213453D01*
X85032Y213851D01*
X84000Y213987D01*
D02*
G37*
G36*
X58464Y174500D02*
X55500D01*
Y171536D01*
X55914Y171590D01*
X56765Y171943D01*
X57496Y172504D01*
X58057Y173235D01*
X58410Y174086D01*
X58464Y174500D01*
D02*
G37*
G36*
X54500D02*
X51536D01*
X51590Y174086D01*
X51943Y173235D01*
X52504Y172504D01*
X53235Y171943D01*
X54086Y171590D01*
X54500Y171536D01*
Y174500D01*
D02*
G37*
G36*
X153953Y173953D02*
X146047D01*
Y166047D01*
X153953D01*
Y173953D01*
D02*
G37*
G36*
X140000Y173987D02*
X138968Y173851D01*
X138007Y173453D01*
X137181Y172819D01*
X136547Y171993D01*
X136149Y171032D01*
X136013Y170000D01*
X136149Y168968D01*
X136547Y168007D01*
X137181Y167181D01*
X138007Y166547D01*
X138968Y166149D01*
X140000Y166013D01*
X141032Y166149D01*
X141993Y166547D01*
X142819Y167181D01*
X143453Y168007D01*
X143851Y168968D01*
X143987Y170000D01*
X143851Y171032D01*
X143453Y171993D01*
X142819Y172819D01*
X141993Y173453D01*
X141032Y173851D01*
X140000Y173987D01*
D02*
G37*
G36*
X130000D02*
X128968Y173851D01*
X128007Y173453D01*
X127181Y172819D01*
X126547Y171993D01*
X126149Y171032D01*
X126013Y170000D01*
X126149Y168968D01*
X126547Y168007D01*
X127181Y167181D01*
X128007Y166547D01*
X128968Y166149D01*
X130000Y166013D01*
X131032Y166149D01*
X131993Y166547D01*
X132819Y167181D01*
X133453Y168007D01*
X133851Y168968D01*
X133987Y170000D01*
X133851Y171032D01*
X133453Y171993D01*
X132819Y172819D01*
X131993Y173453D01*
X131032Y173851D01*
X130000Y173987D01*
D02*
G37*
G36*
X80000D02*
X78968Y173851D01*
X78007Y173453D01*
X77181Y172819D01*
X76547Y171993D01*
X76149Y171032D01*
X76013Y170000D01*
X76149Y168968D01*
X76547Y168007D01*
X77181Y167181D01*
X78007Y166547D01*
X78968Y166149D01*
X80000Y166013D01*
X81032Y166149D01*
X81993Y166547D01*
X82819Y167181D01*
X83453Y168007D01*
X83851Y168968D01*
X83987Y170000D01*
X83851Y171032D01*
X83453Y171993D01*
X82819Y172819D01*
X81993Y173453D01*
X81032Y173851D01*
X80000Y173987D01*
D02*
G37*
G36*
X55500Y168464D02*
Y165500D01*
X58464D01*
X58410Y165914D01*
X58057Y166765D01*
X57496Y167496D01*
X56765Y168057D01*
X55914Y168410D01*
X55500Y168464D01*
D02*
G37*
G36*
X54500D02*
X54086Y168410D01*
X53235Y168057D01*
X52504Y167496D01*
X51943Y166765D01*
X51590Y165914D01*
X51536Y165500D01*
X54500D01*
Y168464D01*
D02*
G37*
G36*
X58464Y164500D02*
X55500D01*
Y161536D01*
X55914Y161590D01*
X56765Y161943D01*
X57496Y162504D01*
X58057Y163235D01*
X58410Y164086D01*
X58464Y164500D01*
D02*
G37*
G36*
X54500D02*
X51536D01*
X51590Y164086D01*
X51943Y163235D01*
X52504Y162504D01*
X53235Y161943D01*
X54086Y161590D01*
X54500Y161536D01*
Y164500D01*
D02*
G37*
G36*
X160000Y167224D02*
X159149Y167054D01*
X158428Y166572D01*
X157946Y165851D01*
X157776Y165000D01*
X157946Y164149D01*
X158428Y163427D01*
X158471Y163399D01*
Y160634D01*
X154453Y156616D01*
X153953Y156738D01*
Y163953D01*
X146047D01*
Y156529D01*
X142791D01*
X142622Y157029D01*
X142819Y157181D01*
X143453Y158007D01*
X143851Y158968D01*
X143987Y160000D01*
X143851Y161032D01*
X143453Y161993D01*
X142819Y162819D01*
X141993Y163453D01*
X141032Y163851D01*
X140000Y163987D01*
X138968Y163851D01*
X138007Y163453D01*
X137181Y162819D01*
X136547Y161993D01*
X136149Y161032D01*
X136013Y160000D01*
X136149Y158968D01*
X136547Y158007D01*
X137181Y157181D01*
X137378Y157029D01*
X137208Y156529D01*
X135000D01*
X134415Y156413D01*
X133919Y156081D01*
X131496Y153659D01*
X131032Y153851D01*
X130000Y153987D01*
X128968Y153851D01*
X128007Y153453D01*
X127181Y152819D01*
X126547Y151993D01*
X126149Y151032D01*
X126013Y150000D01*
X126149Y148968D01*
X126547Y148007D01*
X127181Y147181D01*
X128007Y146547D01*
X128968Y146149D01*
X130000Y146013D01*
X131032Y146149D01*
X131993Y146547D01*
X132819Y147181D01*
X133453Y148007D01*
X133851Y148968D01*
X133987Y150000D01*
X133851Y151032D01*
X133659Y151496D01*
X135634Y153471D01*
X137208D01*
X137378Y152971D01*
X137181Y152819D01*
X136547Y151993D01*
X136149Y151032D01*
X136013Y150000D01*
X136149Y148968D01*
X136547Y148007D01*
X137181Y147181D01*
X138007Y146547D01*
X138968Y146149D01*
X140000Y146013D01*
X141032Y146149D01*
X141496Y146341D01*
X146919Y140919D01*
X147415Y140587D01*
X148000Y140471D01*
X148399D01*
X148427Y140427D01*
X149149Y139945D01*
X150000Y139776D01*
X150851Y139945D01*
X151573Y140427D01*
X152055Y141149D01*
X152224Y142000D01*
X152055Y142851D01*
X151573Y143572D01*
X150851Y144054D01*
X150000Y144224D01*
X149149Y144054D01*
X148525Y143638D01*
X146578Y145585D01*
X146769Y146047D01*
X149500D01*
Y150000D01*
X150000D01*
Y150500D01*
X153953D01*
Y153471D01*
X155000D01*
X155585Y153587D01*
X156081Y153919D01*
X161081Y158919D01*
X161413Y159415D01*
X161529Y160000D01*
Y163399D01*
X161573Y163427D01*
X162055Y164149D01*
X162224Y165000D01*
X162055Y165851D01*
X161573Y166572D01*
X160851Y167054D01*
X160000Y167224D01*
D02*
G37*
G36*
X130000Y163987D02*
X128968Y163851D01*
X128007Y163453D01*
X127181Y162819D01*
X126547Y161993D01*
X126149Y161032D01*
X126013Y160000D01*
X126149Y158968D01*
X126547Y158007D01*
X127181Y157181D01*
X128007Y156547D01*
X128968Y156149D01*
X130000Y156013D01*
X131032Y156149D01*
X131993Y156547D01*
X132819Y157181D01*
X133453Y158007D01*
X133851Y158968D01*
X133987Y160000D01*
X133851Y161032D01*
X133453Y161993D01*
X132819Y162819D01*
X131993Y163453D01*
X131032Y163851D01*
X130000Y163987D01*
D02*
G37*
G36*
X80000D02*
X78968Y163851D01*
X78007Y163453D01*
X77181Y162819D01*
X76547Y161993D01*
X76149Y161032D01*
X76013Y160000D01*
X76149Y158968D01*
X76547Y158007D01*
X77181Y157181D01*
X78007Y156547D01*
X78968Y156149D01*
X80000Y156013D01*
X81032Y156149D01*
X81993Y156547D01*
X82819Y157181D01*
X83453Y158007D01*
X83851Y158968D01*
X83987Y160000D01*
X83851Y161032D01*
X83453Y161993D01*
X82819Y162819D01*
X81993Y163453D01*
X81032Y163851D01*
X80000Y163987D01*
D02*
G37*
G36*
X190500Y157124D02*
Y155500D01*
X192124D01*
X192054Y155851D01*
X191572Y156572D01*
X190851Y157054D01*
X190500Y157124D01*
D02*
G37*
G36*
X189500D02*
X189149Y157054D01*
X188427Y156572D01*
X187945Y155851D01*
X187876Y155500D01*
X189500D01*
Y157124D01*
D02*
G37*
G36*
X192124Y154500D02*
X190500D01*
Y152876D01*
X190851Y152945D01*
X191572Y153428D01*
X192054Y154149D01*
X192124Y154500D01*
D02*
G37*
G36*
X189500D02*
X187876D01*
X187945Y154149D01*
X188427Y153428D01*
X189149Y152945D01*
X189500Y152876D01*
Y154500D01*
D02*
G37*
G36*
X153953Y149500D02*
X150500D01*
Y146047D01*
X153953D01*
Y149500D01*
D02*
G37*
G36*
X120000Y153987D02*
X118968Y153851D01*
X118007Y153453D01*
X117181Y152819D01*
X116547Y151993D01*
X116149Y151032D01*
X116013Y150000D01*
X116149Y148968D01*
X116547Y148007D01*
X117181Y147181D01*
X118007Y146547D01*
X118968Y146149D01*
X120000Y146013D01*
X121032Y146149D01*
X121993Y146547D01*
X122819Y147181D01*
X123453Y148007D01*
X123851Y148968D01*
X123987Y150000D01*
X123851Y151032D01*
X123453Y151993D01*
X122819Y152819D01*
X121993Y153453D01*
X121032Y153851D01*
X120000Y153987D01*
D02*
G37*
G36*
X24000Y149225D02*
X22917Y149082D01*
X21907Y148664D01*
X21041Y147999D01*
X20375Y147132D01*
X19957Y146123D01*
X19815Y145039D01*
X19957Y143956D01*
X20375Y142947D01*
X21041Y142080D01*
X21907Y141415D01*
X22917Y140997D01*
X24000Y140854D01*
X25083Y140997D01*
X26093Y141415D01*
X26959Y142080D01*
X27625Y142947D01*
X28043Y143956D01*
X28185Y145039D01*
X28043Y146123D01*
X27625Y147132D01*
X26959Y147999D01*
X26093Y148664D01*
X25083Y149082D01*
X24000Y149225D01*
D02*
G37*
G36*
X154500Y127124D02*
Y125500D01*
X156124D01*
X156054Y125851D01*
X155572Y126573D01*
X154851Y127055D01*
X154500Y127124D01*
D02*
G37*
G36*
X153500D02*
X153149Y127055D01*
X152427Y126573D01*
X151945Y125851D01*
X151876Y125500D01*
X153500D01*
Y127124D01*
D02*
G37*
G36*
X156124Y124500D02*
X154500D01*
Y122876D01*
X154851Y122945D01*
X155572Y123427D01*
X156054Y124149D01*
X156124Y124500D01*
D02*
G37*
G36*
X153500D02*
X151876D01*
X151945Y124149D01*
X152427Y123427D01*
X153149Y122945D01*
X153500Y122876D01*
Y124500D01*
D02*
G37*
G36*
X112500Y120124D02*
Y118500D01*
X114124D01*
X114055Y118851D01*
X113573Y119572D01*
X112851Y120054D01*
X112500Y120124D01*
D02*
G37*
G36*
X111500D02*
X111149Y120054D01*
X110427Y119572D01*
X109945Y118851D01*
X109876Y118500D01*
X111500D01*
Y120124D01*
D02*
G37*
G36*
X129500Y119124D02*
Y117500D01*
X131124D01*
X131054Y117851D01*
X130572Y118572D01*
X129851Y119054D01*
X129500Y119124D01*
D02*
G37*
G36*
X128500D02*
X128149Y119054D01*
X127427Y118572D01*
X126945Y117851D01*
X126876Y117500D01*
X128500D01*
Y119124D01*
D02*
G37*
G36*
X121500D02*
Y117500D01*
X123124D01*
X123055Y117851D01*
X122573Y118572D01*
X121851Y119054D01*
X121500Y119124D01*
D02*
G37*
G36*
X120500D02*
X120149Y119054D01*
X119428Y118572D01*
X118946Y117851D01*
X118876Y117500D01*
X120500D01*
Y119124D01*
D02*
G37*
G36*
X114124Y117500D02*
X112500D01*
Y115876D01*
X112851Y115945D01*
X113573Y116428D01*
X114055Y117149D01*
X114124Y117500D01*
D02*
G37*
G36*
X111500D02*
X109876D01*
X109945Y117149D01*
X110427Y116428D01*
X111149Y115945D01*
X111500Y115876D01*
Y117500D01*
D02*
G37*
G36*
X131124Y116500D02*
X129500D01*
Y114876D01*
X129851Y114945D01*
X130572Y115427D01*
X131054Y116149D01*
X131124Y116500D01*
D02*
G37*
G36*
X128500D02*
X126876D01*
X126945Y116149D01*
X127427Y115427D01*
X128149Y114945D01*
X128500Y114876D01*
Y116500D01*
D02*
G37*
G36*
X123124D02*
X121500D01*
Y114876D01*
X121851Y114945D01*
X122573Y115427D01*
X123055Y116149D01*
X123124Y116500D01*
D02*
G37*
G36*
X120500D02*
X118876D01*
X118946Y116149D01*
X119428Y115427D01*
X120149Y114945D01*
X120500Y114876D01*
Y116500D01*
D02*
G37*
G36*
X171500Y111124D02*
Y109500D01*
X173124D01*
X173055Y109851D01*
X172573Y110573D01*
X171851Y111055D01*
X171500Y111124D01*
D02*
G37*
G36*
X170500D02*
X170149Y111055D01*
X169428Y110573D01*
X168946Y109851D01*
X168876Y109500D01*
X170500D01*
Y111124D01*
D02*
G37*
G36*
X163500D02*
Y109500D01*
X165124D01*
X165055Y109851D01*
X164573Y110573D01*
X163851Y111055D01*
X163500Y111124D01*
D02*
G37*
G36*
X162500D02*
X162149Y111055D01*
X161427Y110573D01*
X160945Y109851D01*
X160876Y109500D01*
X162500D01*
Y111124D01*
D02*
G37*
G36*
X173124Y108500D02*
X171500D01*
Y106876D01*
X171851Y106946D01*
X172573Y107428D01*
X173055Y108149D01*
X173124Y108500D01*
D02*
G37*
G36*
X170500D02*
X168876D01*
X168946Y108149D01*
X169428Y107428D01*
X170149Y106946D01*
X170500Y106876D01*
Y108500D01*
D02*
G37*
G36*
X165124D02*
X163500D01*
Y106876D01*
X163851Y106946D01*
X164573Y107428D01*
X165055Y108149D01*
X165124Y108500D01*
D02*
G37*
G36*
X162500D02*
X160876D01*
X160945Y108149D01*
X161427Y107428D01*
X162149Y106946D01*
X162500Y106876D01*
Y108500D01*
D02*
G37*
G36*
X66331Y103754D02*
X66057Y103700D01*
X65400Y103261D01*
X64962Y102605D01*
X64920Y102397D01*
X64411D01*
X64369Y102605D01*
X63931Y103261D01*
X63274Y103700D01*
X63000Y103754D01*
Y101831D01*
X62000D01*
Y103754D01*
X61726Y103700D01*
X61069Y103261D01*
X60631Y102605D01*
X60589Y102397D01*
X60080D01*
X60038Y102605D01*
X59600Y103261D01*
X58943Y103700D01*
X58669Y103754D01*
Y101831D01*
X58169D01*
Y101331D01*
X56246D01*
X56300Y101057D01*
X56739Y100400D01*
X57395Y99962D01*
X57603Y99920D01*
Y99410D01*
X57395Y99369D01*
X56739Y98931D01*
X56300Y98274D01*
X56246Y98000D01*
X58169D01*
Y97000D01*
X56246D01*
X56300Y96726D01*
X56739Y96069D01*
X57395Y95631D01*
X57603Y95590D01*
Y95080D01*
X57395Y95038D01*
X56739Y94600D01*
X56300Y93944D01*
X56246Y93669D01*
X58169D01*
Y93169D01*
X58669D01*
Y91246D01*
X58943Y91300D01*
X59600Y91739D01*
X60038Y92395D01*
X60080Y92603D01*
X60589D01*
X60631Y92395D01*
X61069Y91739D01*
X61726Y91300D01*
X62000Y91246D01*
Y93169D01*
X63000D01*
Y91246D01*
X63274Y91300D01*
X63931Y91739D01*
X64369Y92395D01*
X64411Y92603D01*
X64920D01*
X64962Y92395D01*
X65400Y91739D01*
X66057Y91300D01*
X66331Y91246D01*
Y93169D01*
X66831D01*
Y93669D01*
X68754D01*
X68700Y93944D01*
X68261Y94600D01*
X67605Y95038D01*
X67397Y95080D01*
Y95590D01*
X67605Y95631D01*
X68261Y96069D01*
X68700Y96726D01*
X68754Y97000D01*
X66831D01*
Y98000D01*
X68754D01*
X68700Y98274D01*
X68261Y98931D01*
X67605Y99369D01*
X67397Y99410D01*
Y99920D01*
X67605Y99962D01*
X68261Y100400D01*
X68700Y101057D01*
X68754Y101331D01*
X66831D01*
Y101831D01*
X66331D01*
Y103754D01*
D02*
G37*
G36*
X67331D02*
Y102331D01*
X68754D01*
X68700Y102605D01*
X68261Y103261D01*
X67605Y103700D01*
X67331Y103754D01*
D02*
G37*
G36*
X57669D02*
X57395Y103700D01*
X56739Y103261D01*
X56300Y102605D01*
X56246Y102331D01*
X57669D01*
Y103754D01*
D02*
G37*
G36*
X68754Y92669D02*
X67331D01*
Y91246D01*
X67605Y91300D01*
X68261Y91739D01*
X68700Y92395D01*
X68754Y92669D01*
D02*
G37*
G36*
X57669D02*
X56246D01*
X56300Y92395D01*
X56739Y91739D01*
X57395Y91300D01*
X57669Y91246D01*
Y92669D01*
D02*
G37*
G36*
X102300Y87949D02*
Y86324D01*
X103924D01*
X103855Y86675D01*
X103373Y87397D01*
X102651Y87879D01*
X102300Y87949D01*
D02*
G37*
G36*
X101300D02*
X100949Y87879D01*
X100227Y87397D01*
X99746Y86675D01*
X99676Y86324D01*
X101300D01*
Y87949D01*
D02*
G37*
G36*
X103924Y85324D02*
X102300D01*
Y83700D01*
X102651Y83770D01*
X103373Y84252D01*
X103855Y84973D01*
X103924Y85324D01*
D02*
G37*
G36*
X101300D02*
X99676D01*
X99746Y84973D01*
X100227Y84252D01*
X100949Y83770D01*
X101300Y83700D01*
Y85324D01*
D02*
G37*
G36*
X34000Y213987D02*
X32968Y213851D01*
X32007Y213453D01*
X31181Y212819D01*
X30547Y211993D01*
X30149Y211032D01*
X30013Y210000D01*
X30149Y208968D01*
X30547Y208007D01*
X31181Y207181D01*
X31961Y206582D01*
Y84845D01*
X31069Y83953D01*
X26047D01*
Y78931D01*
X23558Y76442D01*
X23116Y75780D01*
X22961Y75000D01*
Y33874D01*
X22945Y33851D01*
X22776Y33000D01*
X22945Y32149D01*
X23067Y31967D01*
X23116Y31720D01*
X23558Y31058D01*
X46058Y8558D01*
X46058Y8558D01*
X46720Y8116D01*
X47500Y7961D01*
X47500Y7961D01*
X70000D01*
X70780Y8116D01*
X71442Y8558D01*
X79025Y16141D01*
X80000Y16013D01*
X81032Y16149D01*
X81993Y16547D01*
X82819Y17181D01*
X83453Y18007D01*
X83851Y18968D01*
X83987Y20000D01*
X83851Y21032D01*
X83453Y21993D01*
X82819Y22819D01*
X81993Y23453D01*
X81032Y23851D01*
X80000Y23987D01*
X78968Y23851D01*
X78007Y23453D01*
X77181Y22819D01*
X76547Y21993D01*
X76149Y21032D01*
X76013Y20000D01*
X76142Y19025D01*
X69155Y12039D01*
X48345D01*
X27184Y33200D01*
X27055Y33851D01*
X27039Y33874D01*
Y56659D01*
X27539Y56906D01*
X28007Y56547D01*
X28968Y56149D01*
X29500Y56079D01*
Y60000D01*
Y63921D01*
X28968Y63851D01*
X28007Y63453D01*
X27539Y63094D01*
X27039Y63341D01*
Y66659D01*
X27539Y66906D01*
X28007Y66547D01*
X28968Y66149D01*
X30000Y66013D01*
X31032Y66149D01*
X31993Y66547D01*
X32819Y67181D01*
X33453Y68007D01*
X33851Y68968D01*
X33987Y70000D01*
X33851Y71032D01*
X33659Y71496D01*
X44971Y82808D01*
X45408Y82671D01*
X45471Y82623D01*
Y77000D01*
X45587Y76415D01*
X45919Y75919D01*
X54919Y66919D01*
X55415Y66587D01*
X56000Y66471D01*
X84873D01*
X85023Y65971D01*
X84427Y65573D01*
X83946Y64851D01*
X83876Y64500D01*
X88124D01*
X88055Y64851D01*
X87572Y65573D01*
X86977Y65971D01*
X87127Y66471D01*
X100873D01*
X101023Y65971D01*
X100427Y65573D01*
X99945Y64851D01*
X99876Y64500D01*
X104124D01*
X104054Y64851D01*
X103858Y65146D01*
X104130Y65638D01*
X104201Y65636D01*
X110919Y58919D01*
X111415Y58587D01*
X112000Y58471D01*
X136047D01*
Y56047D01*
X143953D01*
Y63262D01*
X144453Y63384D01*
X146341Y61496D01*
X146149Y61032D01*
X146013Y60000D01*
X146149Y58968D01*
X146547Y58007D01*
X147181Y57181D01*
X148007Y56547D01*
X148968Y56149D01*
X150000Y56013D01*
X151032Y56149D01*
X151993Y56547D01*
X152819Y57181D01*
X153453Y58007D01*
X153851Y58968D01*
X153987Y60000D01*
X153851Y61032D01*
X153453Y61993D01*
X152819Y62819D01*
X151993Y63453D01*
X151032Y63851D01*
X150000Y63987D01*
X148968Y63851D01*
X148504Y63659D01*
X146192Y65971D01*
X146329Y66408D01*
X146377Y66471D01*
X151366D01*
X156341Y61496D01*
X156149Y61032D01*
X156013Y60000D01*
X156149Y58968D01*
X156547Y58007D01*
X157181Y57181D01*
X158007Y56547D01*
X158968Y56149D01*
X160000Y56013D01*
X161032Y56149D01*
X161993Y56547D01*
X162819Y57181D01*
X163453Y58007D01*
X163851Y58968D01*
X163987Y60000D01*
X163851Y61032D01*
X163453Y61993D01*
X162819Y62819D01*
X161993Y63453D01*
X161032Y63851D01*
X160000Y63987D01*
X158968Y63851D01*
X158504Y63659D01*
X153081Y69081D01*
X152585Y69413D01*
X152000Y69529D01*
X110634D01*
X107081Y73081D01*
X106585Y73413D01*
X106000Y73529D01*
X60633D01*
X52529Y81634D01*
Y83654D01*
X52991Y83846D01*
X56919Y79919D01*
X57415Y79587D01*
X58000Y79471D01*
X60399D01*
X60427Y79427D01*
X61149Y78945D01*
X62000Y78776D01*
X62851Y78945D01*
X63573Y79427D01*
X63601Y79471D01*
X68881D01*
X68945Y79149D01*
X69428Y78427D01*
X70149Y77946D01*
X71000Y77776D01*
X71851Y77946D01*
X72572Y78427D01*
X73054Y79149D01*
X73224Y80000D01*
X73054Y80851D01*
X72572Y81573D01*
X71851Y82055D01*
X71000Y82224D01*
X70898Y82204D01*
X70585Y82413D01*
X70000Y82529D01*
X63601D01*
X63573Y82573D01*
X62851Y83055D01*
X62000Y83224D01*
X61149Y83055D01*
X60427Y82573D01*
X60399Y82529D01*
X58634D01*
X54529Y86633D01*
Y106367D01*
X64081Y115919D01*
X64413Y116415D01*
X64529Y117000D01*
Y129000D01*
X64413Y129585D01*
X64081Y130081D01*
X59081Y135081D01*
X58585Y135413D01*
X58000Y135529D01*
X53000D01*
X52415Y135413D01*
X51919Y135081D01*
X48919Y132081D01*
X48587Y131585D01*
X48471Y131000D01*
Y124601D01*
X48428Y124573D01*
X47945Y123851D01*
X47776Y123000D01*
X47945Y122149D01*
X48428Y121428D01*
X49149Y120946D01*
X50000Y120776D01*
X50851Y120946D01*
X51573Y121428D01*
X52055Y122149D01*
X52224Y123000D01*
X52055Y123851D01*
X51573Y124573D01*
X51529Y124601D01*
Y130367D01*
X52799Y131636D01*
X52870Y131638D01*
X53142Y131146D01*
X52946Y130851D01*
X52776Y130000D01*
X52946Y129149D01*
X53427Y128428D01*
X54149Y127945D01*
X55000Y127776D01*
X55851Y127945D01*
X56475Y128362D01*
X58471Y126366D01*
Y125183D01*
X58009Y124991D01*
X56919Y126081D01*
X56886Y126103D01*
X56573Y126573D01*
X55851Y127055D01*
X55000Y127224D01*
X54149Y127055D01*
X53427Y126573D01*
X52946Y125851D01*
X52776Y125000D01*
X52946Y124149D01*
X53427Y123427D01*
X54149Y122945D01*
X55000Y122776D01*
X55749Y122925D01*
X56355Y122319D01*
X56049Y121945D01*
X56030Y121935D01*
X55851Y122055D01*
X55000Y122224D01*
X54149Y122055D01*
X53427Y121572D01*
X52946Y120851D01*
X52776Y120000D01*
X52786Y119949D01*
X45919Y113081D01*
X45587Y112585D01*
X45471Y112000D01*
Y89171D01*
X45030Y88935D01*
X44851Y89055D01*
X44000Y89224D01*
X43149Y89055D01*
X42428Y88573D01*
X41945Y87851D01*
X41776Y87000D01*
X41945Y86149D01*
X42428Y85427D01*
X42471Y85399D01*
Y84633D01*
X34415Y76578D01*
X33953Y76769D01*
Y81069D01*
X35442Y82558D01*
X35884Y83220D01*
X36039Y84000D01*
Y206582D01*
X36819Y207181D01*
X37453Y208007D01*
X37851Y208968D01*
X37987Y210000D01*
X37851Y211032D01*
X37453Y211993D01*
X36819Y212819D01*
X35993Y213453D01*
X35032Y213851D01*
X34000Y213987D01*
D02*
G37*
G36*
X160500Y78464D02*
Y75500D01*
X163464D01*
X163410Y75914D01*
X163057Y76765D01*
X162496Y77496D01*
X161765Y78057D01*
X160914Y78410D01*
X160500Y78464D01*
D02*
G37*
G36*
X159500D02*
X159086Y78410D01*
X158235Y78057D01*
X157504Y77496D01*
X156943Y76765D01*
X156590Y75914D01*
X156536Y75500D01*
X159500D01*
Y78464D01*
D02*
G37*
G36*
X140500D02*
Y75500D01*
X143464D01*
X143410Y75914D01*
X143057Y76765D01*
X142496Y77496D01*
X141765Y78057D01*
X140914Y78410D01*
X140500Y78464D01*
D02*
G37*
G36*
X139500D02*
X139086Y78410D01*
X138235Y78057D01*
X137504Y77496D01*
X136943Y76765D01*
X136590Y75914D01*
X136536Y75500D01*
X139500D01*
Y78464D01*
D02*
G37*
G36*
X182500Y77311D02*
Y72500D01*
X187311D01*
X187194Y73392D01*
X186656Y74688D01*
X185802Y75802D01*
X184688Y76656D01*
X183392Y77193D01*
X182500Y77311D01*
D02*
G37*
G36*
X181500D02*
X180608Y77193D01*
X179312Y76656D01*
X178198Y75802D01*
X177344Y74688D01*
X176806Y73392D01*
X176689Y72500D01*
X181500D01*
Y77311D01*
D02*
G37*
G36*
X163464Y74500D02*
X160500D01*
Y71536D01*
X160914Y71590D01*
X161765Y71943D01*
X162496Y72504D01*
X163057Y73235D01*
X163410Y74086D01*
X163464Y74500D01*
D02*
G37*
G36*
X159500D02*
X156536D01*
X156590Y74086D01*
X156943Y73235D01*
X157504Y72504D01*
X158235Y71943D01*
X159086Y71590D01*
X159500Y71536D01*
Y74500D01*
D02*
G37*
G36*
X143464D02*
X140500D01*
Y71536D01*
X140914Y71590D01*
X141765Y71943D01*
X142496Y72504D01*
X143057Y73235D01*
X143410Y74086D01*
X143464Y74500D01*
D02*
G37*
G36*
X139500D02*
X136536D01*
X136590Y74086D01*
X136943Y73235D01*
X137504Y72504D01*
X138235Y71943D01*
X139086Y71590D01*
X139500Y71536D01*
Y74500D01*
D02*
G37*
G36*
X187311Y71500D02*
X182500D01*
Y66689D01*
X183392Y66807D01*
X184688Y67344D01*
X185802Y68198D01*
X186656Y69312D01*
X187194Y70608D01*
X187311Y71500D01*
D02*
G37*
G36*
X181500D02*
X176689D01*
X176806Y70608D01*
X177344Y69312D01*
X178198Y68198D01*
X179312Y67344D01*
X180608Y66807D01*
X181500Y66689D01*
Y71500D01*
D02*
G37*
G36*
X104124Y63500D02*
X102500D01*
Y61876D01*
X102851Y61945D01*
X103572Y62428D01*
X104054Y63149D01*
X104124Y63500D01*
D02*
G37*
G36*
X101500D02*
X99876D01*
X99945Y63149D01*
X100427Y62428D01*
X101149Y61945D01*
X101500Y61876D01*
Y63500D01*
D02*
G37*
G36*
X88124D02*
X86500D01*
Y61876D01*
X86851Y61945D01*
X87572Y62428D01*
X88055Y63149D01*
X88124Y63500D01*
D02*
G37*
G36*
X85500D02*
X83876D01*
X83946Y63149D01*
X84427Y62428D01*
X85149Y61945D01*
X85500Y61876D01*
Y63500D01*
D02*
G37*
G36*
X30500Y63921D02*
Y60500D01*
X33921D01*
X33851Y61032D01*
X33453Y61993D01*
X32819Y62819D01*
X31993Y63453D01*
X31032Y63851D01*
X30500Y63921D01*
D02*
G37*
G36*
X47500Y61124D02*
Y59500D01*
X49124D01*
X49055Y59851D01*
X48572Y60572D01*
X47851Y61054D01*
X47500Y61124D01*
D02*
G37*
G36*
X46500D02*
X46149Y61054D01*
X45428Y60572D01*
X44945Y59851D01*
X44876Y59500D01*
X46500D01*
Y61124D01*
D02*
G37*
G36*
X49124Y58500D02*
X47500D01*
Y56876D01*
X47851Y56946D01*
X48572Y57428D01*
X49055Y58149D01*
X49124Y58500D01*
D02*
G37*
G36*
X46500D02*
X44876D01*
X44945Y58149D01*
X45428Y57428D01*
X46149Y56946D01*
X46500Y56876D01*
Y58500D01*
D02*
G37*
G36*
X192000Y84224D02*
X191149Y84054D01*
X190427Y83573D01*
X189945Y82851D01*
X189776Y82000D01*
X189945Y81149D01*
X189961Y81126D01*
Y66925D01*
X189312Y66656D01*
X188198Y65802D01*
X187344Y64688D01*
X186806Y63392D01*
X186623Y62000D01*
X186806Y60608D01*
X187344Y59312D01*
X188198Y58198D01*
X189312Y57344D01*
X190608Y56806D01*
X192000Y56623D01*
X193392Y56806D01*
X194688Y57344D01*
X195802Y58198D01*
X196656Y59312D01*
X197194Y60608D01*
X197377Y62000D01*
X197194Y63392D01*
X196656Y64688D01*
X195802Y65802D01*
X194688Y66656D01*
X194039Y66925D01*
Y81126D01*
X194054Y81149D01*
X194224Y82000D01*
X194054Y82851D01*
X193572Y83573D01*
X192851Y84054D01*
X192000Y84224D01*
D02*
G37*
G36*
X33921Y59500D02*
X30500D01*
Y56079D01*
X31032Y56149D01*
X31993Y56547D01*
X32819Y57181D01*
X33453Y58007D01*
X33851Y58968D01*
X33921Y59500D01*
D02*
G37*
G36*
X182500Y57311D02*
Y52500D01*
X187311D01*
X187194Y53392D01*
X186656Y54688D01*
X185802Y55802D01*
X184688Y56656D01*
X183392Y57193D01*
X182500Y57311D01*
D02*
G37*
G36*
X181500D02*
X180608Y57193D01*
X179312Y56656D01*
X178198Y55802D01*
X177344Y54688D01*
X176806Y53392D01*
X176689Y52500D01*
X181500D01*
Y57311D01*
D02*
G37*
G36*
X48500Y52464D02*
Y49500D01*
X51464D01*
X51410Y49914D01*
X51057Y50765D01*
X50496Y51496D01*
X49765Y52057D01*
X48914Y52410D01*
X48500Y52464D01*
D02*
G37*
G36*
X47500D02*
X47086Y52410D01*
X46235Y52057D01*
X45504Y51496D01*
X44943Y50765D01*
X44590Y49914D01*
X44536Y49500D01*
X47500D01*
Y52464D01*
D02*
G37*
G36*
X81213Y56980D02*
X79924Y56810D01*
X78723Y56313D01*
X77692Y55521D01*
X76900Y54490D01*
X76403Y53289D01*
X76233Y52000D01*
X76403Y50711D01*
X76900Y49510D01*
X77692Y48479D01*
X78723Y47688D01*
X79924Y47190D01*
X81213Y47020D01*
X82501Y47190D01*
X83702Y47688D01*
X84734Y48479D01*
X85525Y49510D01*
X86023Y50711D01*
X86192Y52000D01*
X86023Y53289D01*
X85525Y54490D01*
X84734Y55521D01*
X83702Y56313D01*
X82501Y56810D01*
X81213Y56980D01*
D02*
G37*
G36*
X62000D02*
X60711Y56810D01*
X59510Y56313D01*
X58479Y55521D01*
X57687Y54490D01*
X57190Y53289D01*
X57020Y52000D01*
X57190Y50711D01*
X57687Y49510D01*
X58479Y48479D01*
X59510Y47688D01*
X60711Y47190D01*
X62000Y47020D01*
X63289Y47190D01*
X64490Y47688D01*
X65521Y48479D01*
X66312Y49510D01*
X66810Y50711D01*
X66980Y52000D01*
X66810Y53289D01*
X66312Y54490D01*
X65521Y55521D01*
X64490Y56313D01*
X63289Y56810D01*
X62000Y56980D01*
D02*
G37*
G36*
X187311Y51500D02*
X182500D01*
Y46689D01*
X183392Y46806D01*
X184688Y47344D01*
X185802Y48198D01*
X186656Y49312D01*
X187194Y50608D01*
X187311Y51500D01*
D02*
G37*
G36*
X181500D02*
X176689D01*
X176806Y50608D01*
X177344Y49312D01*
X178198Y48198D01*
X179312Y47344D01*
X180608Y46806D01*
X181500Y46689D01*
Y51500D01*
D02*
G37*
G36*
X51464Y48500D02*
X48500D01*
Y45536D01*
X48914Y45590D01*
X49765Y45943D01*
X50496Y46504D01*
X51057Y47235D01*
X51410Y48086D01*
X51464Y48500D01*
D02*
G37*
G36*
X47500D02*
X44536D01*
X44590Y48086D01*
X44943Y47235D01*
X45504Y46504D01*
X46235Y45943D01*
X47086Y45590D01*
X47500Y45536D01*
Y48500D01*
D02*
G37*
G36*
X125000Y48987D02*
X123968Y48851D01*
X123007Y48453D01*
X122181Y47819D01*
X121547Y46993D01*
X121149Y46032D01*
X121013Y45000D01*
X121149Y43968D01*
X121547Y43007D01*
X122181Y42181D01*
X122378Y42029D01*
X122208Y41529D01*
X117791D01*
X117622Y42029D01*
X117819Y42181D01*
X118453Y43007D01*
X118851Y43968D01*
X118987Y45000D01*
X118851Y46032D01*
X118453Y46993D01*
X117819Y47819D01*
X116993Y48453D01*
X116032Y48851D01*
X115000Y48987D01*
X113968Y48851D01*
X113007Y48453D01*
X112181Y47819D01*
X111547Y46993D01*
X111149Y46032D01*
X111013Y45000D01*
X111149Y43968D01*
X111547Y43007D01*
X112181Y42181D01*
X112378Y42029D01*
X112208Y41529D01*
X108953D01*
Y48953D01*
X101047D01*
Y41529D01*
X77127D01*
X76977Y42029D01*
X77573Y42428D01*
X78054Y43149D01*
X78224Y44000D01*
X78054Y44851D01*
X77573Y45573D01*
X76851Y46055D01*
X76000Y46224D01*
X75149Y46055D01*
X74427Y45573D01*
X73945Y44851D01*
X73776Y44000D01*
X73945Y43149D01*
X74427Y42428D01*
X75023Y42029D01*
X74873Y41529D01*
X69127D01*
X68977Y42029D01*
X69573Y42428D01*
X70055Y43149D01*
X70224Y44000D01*
X70055Y44851D01*
X69573Y45573D01*
X68851Y46055D01*
X68000Y46224D01*
X67149Y46055D01*
X66427Y45573D01*
X65946Y44851D01*
X65776Y44000D01*
X65946Y43149D01*
X66427Y42428D01*
X67023Y42029D01*
X66873Y41529D01*
X33601D01*
X33573Y41572D01*
X32851Y42055D01*
X32000Y42224D01*
X31149Y42055D01*
X30428Y41572D01*
X29945Y40851D01*
X29776Y40000D01*
X29945Y39149D01*
X30428Y38427D01*
X31149Y37945D01*
X32000Y37776D01*
X32851Y37945D01*
X33573Y38427D01*
X33601Y38471D01*
X159367D01*
X176341Y21496D01*
X176149Y21032D01*
X176013Y20000D01*
X176149Y18968D01*
X176547Y18007D01*
X177181Y17181D01*
X178007Y16547D01*
X178968Y16149D01*
X180000Y16013D01*
X181032Y16149D01*
X181993Y16547D01*
X182819Y17181D01*
X183453Y18007D01*
X183851Y18968D01*
X183987Y20000D01*
X183851Y21032D01*
X183453Y21993D01*
X182819Y22819D01*
X181993Y23453D01*
X181032Y23851D01*
X180000Y23987D01*
X178968Y23851D01*
X178504Y23659D01*
X161081Y41081D01*
X160585Y41413D01*
X160000Y41529D01*
X127792D01*
X127622Y42029D01*
X127819Y42181D01*
X128453Y43007D01*
X128851Y43968D01*
X128987Y45000D01*
X128851Y46032D01*
X128453Y46993D01*
X127819Y47819D01*
X126993Y48453D01*
X126032Y48851D01*
X125000Y48987D01*
D02*
G37*
G36*
X110500Y23921D02*
Y20500D01*
X113921D01*
X113851Y21032D01*
X113453Y21993D01*
X112819Y22819D01*
X111993Y23453D01*
X111032Y23851D01*
X110500Y23921D01*
D02*
G37*
G36*
X109500D02*
X108968Y23851D01*
X108007Y23453D01*
X107181Y22819D01*
X106547Y21993D01*
X106149Y21032D01*
X106079Y20500D01*
X109500D01*
Y23921D01*
D02*
G37*
G36*
X100500D02*
Y20500D01*
X103921D01*
X103851Y21032D01*
X103453Y21993D01*
X102819Y22819D01*
X101993Y23453D01*
X101032Y23851D01*
X100500Y23921D01*
D02*
G37*
G36*
X99500D02*
X98968Y23851D01*
X98007Y23453D01*
X97181Y22819D01*
X96547Y21993D01*
X96149Y21032D01*
X96079Y20500D01*
X99500D01*
Y23921D01*
D02*
G37*
G36*
X113921Y19500D02*
X110500D01*
Y16079D01*
X111032Y16149D01*
X111993Y16547D01*
X112819Y17181D01*
X113453Y18007D01*
X113851Y18968D01*
X113921Y19500D01*
D02*
G37*
G36*
X109500D02*
X106079D01*
X106149Y18968D01*
X106547Y18007D01*
X107181Y17181D01*
X108007Y16547D01*
X108968Y16149D01*
X109500Y16079D01*
Y19500D01*
D02*
G37*
G36*
X103921D02*
X100500D01*
Y16079D01*
X101032Y16149D01*
X101993Y16547D01*
X102819Y17181D01*
X103453Y18007D01*
X103851Y18968D01*
X103921Y19500D01*
D02*
G37*
G36*
X99500D02*
X96079D01*
X96149Y18968D01*
X96547Y18007D01*
X97181Y17181D01*
X98007Y16547D01*
X98968Y16149D01*
X99500Y16079D01*
Y19500D01*
D02*
G37*
G36*
X143953Y23953D02*
X136047D01*
Y16047D01*
X143953D01*
Y23953D01*
D02*
G37*
G36*
X53953D02*
X46047D01*
Y16047D01*
X53953D01*
Y23953D01*
D02*
G37*
G36*
X190000Y23987D02*
X188968Y23851D01*
X188007Y23453D01*
X187181Y22819D01*
X186547Y21993D01*
X186149Y21032D01*
X186013Y20000D01*
X186149Y18968D01*
X186547Y18007D01*
X187181Y17181D01*
X188007Y16547D01*
X188968Y16149D01*
X190000Y16013D01*
X191032Y16149D01*
X191993Y16547D01*
X192819Y17181D01*
X193453Y18007D01*
X193851Y18968D01*
X193987Y20000D01*
X193851Y21032D01*
X193453Y21993D01*
X192819Y22819D01*
X191993Y23453D01*
X191032Y23851D01*
X190000Y23987D01*
D02*
G37*
G36*
X46000Y36224D02*
X45149Y36055D01*
X44427Y35572D01*
X43945Y34851D01*
X43776Y34000D01*
X43945Y33149D01*
X44427Y32427D01*
X45149Y31945D01*
X46000Y31776D01*
X46851Y31945D01*
X47572Y32427D01*
X47601Y32471D01*
X155367D01*
X166341Y21496D01*
X166149Y21032D01*
X166013Y20000D01*
X166149Y18968D01*
X166547Y18007D01*
X167181Y17181D01*
X168007Y16547D01*
X168968Y16149D01*
X170000Y16013D01*
X171032Y16149D01*
X171993Y16547D01*
X172819Y17181D01*
X173453Y18007D01*
X173851Y18968D01*
X173987Y20000D01*
X173851Y21032D01*
X173453Y21993D01*
X172819Y22819D01*
X171993Y23453D01*
X171032Y23851D01*
X170000Y23987D01*
X168968Y23851D01*
X168504Y23659D01*
X157081Y35081D01*
X156585Y35413D01*
X156000Y35529D01*
X47601D01*
X47572Y35572D01*
X46851Y36055D01*
X46000Y36224D01*
D02*
G37*
G36*
X160000Y23987D02*
X158968Y23851D01*
X158007Y23453D01*
X157181Y22819D01*
X156547Y21993D01*
X156149Y21032D01*
X156013Y20000D01*
X156149Y18968D01*
X156547Y18007D01*
X157181Y17181D01*
X158007Y16547D01*
X158968Y16149D01*
X160000Y16013D01*
X161032Y16149D01*
X161993Y16547D01*
X162819Y17181D01*
X163453Y18007D01*
X163851Y18968D01*
X163987Y20000D01*
X163851Y21032D01*
X163453Y21993D01*
X162819Y22819D01*
X161993Y23453D01*
X161032Y23851D01*
X160000Y23987D01*
D02*
G37*
G36*
X150000D02*
X148968Y23851D01*
X148007Y23453D01*
X147181Y22819D01*
X146547Y21993D01*
X146149Y21032D01*
X146013Y20000D01*
X146149Y18968D01*
X146547Y18007D01*
X147181Y17181D01*
X148007Y16547D01*
X148968Y16149D01*
X150000Y16013D01*
X151032Y16149D01*
X151993Y16547D01*
X152819Y17181D01*
X153453Y18007D01*
X153851Y18968D01*
X153987Y20000D01*
X153851Y21032D01*
X153453Y21993D01*
X152819Y22819D01*
X151993Y23453D01*
X151032Y23851D01*
X150000Y23987D01*
D02*
G37*
G36*
X120000D02*
X118968Y23851D01*
X118007Y23453D01*
X117181Y22819D01*
X116547Y21993D01*
X116149Y21032D01*
X116013Y20000D01*
X116149Y18968D01*
X116547Y18007D01*
X117181Y17181D01*
X118007Y16547D01*
X118968Y16149D01*
X120000Y16013D01*
X121032Y16149D01*
X121993Y16547D01*
X122819Y17181D01*
X123453Y18007D01*
X123851Y18968D01*
X123987Y20000D01*
X123851Y21032D01*
X123453Y21993D01*
X122819Y22819D01*
X121993Y23453D01*
X121032Y23851D01*
X120000Y23987D01*
D02*
G37*
G36*
X70000D02*
X68968Y23851D01*
X68007Y23453D01*
X67181Y22819D01*
X66547Y21993D01*
X66149Y21032D01*
X66013Y20000D01*
X66149Y18968D01*
X66547Y18007D01*
X67181Y17181D01*
X68007Y16547D01*
X68968Y16149D01*
X70000Y16013D01*
X71032Y16149D01*
X71993Y16547D01*
X72819Y17181D01*
X73453Y18007D01*
X73851Y18968D01*
X73987Y20000D01*
X73851Y21032D01*
X73453Y21993D01*
X72819Y22819D01*
X71993Y23453D01*
X71032Y23851D01*
X70000Y23987D01*
D02*
G37*
G36*
X60000D02*
X58968Y23851D01*
X58007Y23453D01*
X57181Y22819D01*
X56547Y21993D01*
X56149Y21032D01*
X56013Y20000D01*
X56149Y18968D01*
X56547Y18007D01*
X57181Y17181D01*
X58007Y16547D01*
X58968Y16149D01*
X60000Y16013D01*
X61032Y16149D01*
X61993Y16547D01*
X62819Y17181D01*
X63453Y18007D01*
X63851Y18968D01*
X63987Y20000D01*
X63851Y21032D01*
X63453Y21993D01*
X62819Y22819D01*
X61993Y23453D01*
X61032Y23851D01*
X60000Y23987D01*
D02*
G37*
%LPD*%
D19*
X53000Y107000D02*
X63000Y117000D01*
X53000Y86000D02*
Y107000D01*
Y86000D02*
X58000Y81000D01*
X62000D01*
X51000Y109000D02*
X60000Y118000D01*
X51000Y81000D02*
Y109000D01*
X63000Y117000D02*
Y129000D01*
X58000Y134000D02*
X63000Y129000D01*
X53000Y134000D02*
X58000D01*
X50000Y131000D02*
X53000Y134000D01*
X50000Y123000D02*
Y131000D01*
X60000Y118000D02*
Y127000D01*
X57000Y130000D02*
X60000Y127000D01*
X55837Y125000D02*
X58000Y122837D01*
Y119000D02*
Y122837D01*
X49000Y110000D02*
X58000Y119000D01*
X55000Y125000D02*
X55837D01*
X49000Y79000D02*
Y110000D01*
X47000Y112000D02*
X55000Y120000D01*
X47000Y77000D02*
Y112000D01*
X51000Y81000D02*
X60000Y72000D01*
X49000Y79000D02*
X58000Y70000D01*
X47000Y77000D02*
X56000Y68000D01*
X152000D02*
X160000Y60000D01*
X110000Y68000D02*
X152000D01*
X106000Y72000D02*
X110000Y68000D01*
X60000Y72000D02*
X106000D01*
X145000Y65000D02*
X150000Y60000D01*
X110000Y65000D02*
X145000D01*
X105000Y70000D02*
X110000Y65000D01*
X58000Y70000D02*
X105000D01*
X112000Y60000D02*
X140000D01*
X104000Y68000D02*
X112000Y60000D01*
X56000Y68000D02*
X104000D01*
X55000Y130000D02*
X57000D01*
X30000Y70000D02*
X44000Y84000D01*
Y87000D01*
X62000Y81000D02*
X70000D01*
X71000Y80000D01*
X160000Y40000D02*
X180000Y20000D01*
X32000Y40000D02*
X160000D01*
X46000Y34000D02*
X156000D01*
X170000Y20000D01*
X84000Y210000D02*
X115000Y179000D01*
Y155000D02*
Y179000D01*
X110000Y150000D02*
X115000Y155000D01*
X64000Y210000D02*
X95000Y179000D01*
Y155000D02*
Y179000D01*
X90000Y150000D02*
X95000Y155000D01*
X74000Y210000D02*
X105000Y179000D01*
Y145000D02*
Y179000D01*
X100000Y140000D02*
X105000Y145000D01*
X90000Y140000D02*
X100000D01*
X80000Y150000D02*
X90000Y140000D01*
X55000Y185000D02*
Y209000D01*
X135000Y155000D02*
X155000D01*
X130000Y150000D02*
X135000Y155000D01*
X148000Y142000D02*
X150000D01*
X140000Y150000D02*
X148000Y142000D01*
X155000Y155000D02*
X160000Y160000D01*
Y165000D01*
X44000Y126000D02*
Y210000D01*
X90000Y30000D02*
X100000Y20000D01*
X68000Y30000D02*
X90000D01*
D20*
X34000Y84000D02*
Y210000D01*
X75000Y5000D02*
X90000Y20000D01*
X25000Y5000D02*
X75000D01*
X70000Y10000D02*
X80000Y20000D01*
X47500Y10000D02*
X70000D01*
X192000Y62000D02*
Y82000D01*
X25000Y32500D02*
X47500Y10000D01*
X25000Y75000D02*
X34000Y84000D01*
X5000Y25000D02*
X25000Y5000D01*
X5000Y25000D02*
Y155000D01*
X24980Y174980D01*
X25000Y32500D02*
Y33000D01*
Y75000D01*
D21*
X223000Y103000D02*
X251000D01*
X222500D02*
X223000D01*
D22*
X125000Y45000D02*
D03*
X115000D02*
D03*
X223000Y103000D02*
D03*
Y93000D02*
D03*
X110000Y20000D02*
D03*
X100000D02*
D03*
X80000D02*
D03*
X70000D02*
D03*
X60000D02*
D03*
X90000D02*
D03*
X120000D02*
D03*
X30000Y70000D02*
D03*
Y60000D02*
D03*
X180000Y20000D02*
D03*
X150000D02*
D03*
X160000D02*
D03*
X170000D02*
D03*
X190000D02*
D03*
X180000Y210000D02*
D03*
X170000D02*
D03*
X150000D02*
D03*
X140000D02*
D03*
X130000D02*
D03*
X160000D02*
D03*
X190000D02*
D03*
X150000Y60000D02*
D03*
X160000D02*
D03*
X74000Y210000D02*
D03*
X64000D02*
D03*
X44000D02*
D03*
X34000D02*
D03*
X24000D02*
D03*
X54000D02*
D03*
X84000D02*
D03*
X94000D02*
D03*
X104000D02*
D03*
X90000Y170000D02*
D03*
X140000D02*
D03*
X130000D02*
D03*
X120000D02*
D03*
X110000D02*
D03*
X100000D02*
D03*
X80000D02*
D03*
X90000Y160000D02*
D03*
X140000D02*
D03*
X130000D02*
D03*
X120000D02*
D03*
X110000D02*
D03*
X100000D02*
D03*
X80000D02*
D03*
X90000Y150000D02*
D03*
X140000D02*
D03*
X130000D02*
D03*
X120000D02*
D03*
X110000D02*
D03*
X100000D02*
D03*
X80000D02*
D03*
X251000Y103000D02*
D03*
D23*
X105000Y45000D02*
D03*
X50000Y20000D02*
D03*
X140000D02*
D03*
X120000Y210000D02*
D03*
X140000Y60000D02*
D03*
X14000Y210000D02*
D03*
X150000Y170000D02*
D03*
Y160000D02*
D03*
Y150000D02*
D03*
D24*
X24000Y145039D02*
D03*
D25*
Y174961D02*
D03*
D26*
X200551Y129803D02*
D03*
D27*
X30000Y80000D02*
D03*
D28*
X192000Y62000D02*
D03*
X182000Y72000D02*
D03*
X202000D02*
D03*
Y52000D02*
D03*
X182000D02*
D03*
D29*
X81213D02*
D03*
X62000D02*
D03*
D30*
X160000Y75000D02*
D03*
X140000D02*
D03*
X55000Y165000D02*
D03*
Y175000D02*
D03*
X160000Y180000D02*
D03*
Y190000D02*
D03*
X185000Y180000D02*
D03*
Y190000D02*
D03*
X48000Y49000D02*
D03*
X55000Y185000D02*
D03*
D31*
X50000Y123000D02*
D03*
X44000Y87000D02*
D03*
X55000Y130000D02*
D03*
X62000Y81000D02*
D03*
X101800Y85824D02*
D03*
X32000Y40000D02*
D03*
X76000Y44000D02*
D03*
X112000Y118000D02*
D03*
X129000Y117000D02*
D03*
X121000D02*
D03*
X154000Y125000D02*
D03*
X163000Y109000D02*
D03*
X171000D02*
D03*
X192000Y82000D02*
D03*
X55000Y120000D02*
D03*
Y125000D02*
D03*
X46000Y34000D02*
D03*
X71000Y80000D02*
D03*
X160000Y165000D02*
D03*
X150000Y142000D02*
D03*
X190000Y155000D02*
D03*
X86000Y64000D02*
D03*
X102000D02*
D03*
X68000Y44000D02*
D03*
X47000Y59000D02*
D03*
X25000Y33000D02*
D03*
D32*
X58169Y93169D02*
D03*
Y97500D02*
D03*
X62500Y101831D02*
D03*
X66831Y93169D02*
D03*
X58169Y101831D02*
D03*
X66831D02*
D03*
X62500Y97500D02*
D03*
X66831D02*
D03*
X62500Y93169D02*
D03*
M02*
