G04 Layer_Color=16711935*
%FSLAX25Y25*%
%MOIN*%
G70*
G01*
G75*
%ADD45C,0.06706*%
%ADD46R,0.06706X0.06706*%
%ADD47C,0.07099*%
%ADD48R,0.07099X0.07099*%
%ADD49C,0.13300*%
%ADD50R,0.06706X0.06706*%
%ADD51C,0.09252*%
%ADD52C,0.08674*%
%ADD53C,0.05800*%
%ADD54C,0.03162*%
%ADD55C,0.02769*%
D45*
X125000Y45000D02*
D03*
X115000D02*
D03*
X223000Y103000D02*
D03*
Y93000D02*
D03*
X110000Y20000D02*
D03*
X100000D02*
D03*
X80000D02*
D03*
X70000D02*
D03*
X60000D02*
D03*
X90000D02*
D03*
X120000D02*
D03*
X30000Y70000D02*
D03*
Y60000D02*
D03*
X180000Y20000D02*
D03*
X150000D02*
D03*
X160000D02*
D03*
X170000D02*
D03*
X190000D02*
D03*
X180000Y210000D02*
D03*
X170000D02*
D03*
X150000D02*
D03*
X140000D02*
D03*
X130000D02*
D03*
X160000D02*
D03*
X190000D02*
D03*
X150000Y60000D02*
D03*
X160000D02*
D03*
X74000Y210000D02*
D03*
X64000D02*
D03*
X44000D02*
D03*
X34000D02*
D03*
X24000D02*
D03*
X54000D02*
D03*
X84000D02*
D03*
X94000D02*
D03*
X104000D02*
D03*
X90000Y170000D02*
D03*
X140000D02*
D03*
X130000D02*
D03*
X120000D02*
D03*
X110000D02*
D03*
X100000D02*
D03*
X80000D02*
D03*
X90000Y160000D02*
D03*
X140000D02*
D03*
X130000D02*
D03*
X120000D02*
D03*
X110000D02*
D03*
X100000D02*
D03*
X80000D02*
D03*
X90000Y150000D02*
D03*
X140000D02*
D03*
X130000D02*
D03*
X120000D02*
D03*
X110000D02*
D03*
X100000D02*
D03*
X80000D02*
D03*
X251000Y103000D02*
D03*
D46*
X105000Y45000D02*
D03*
X50000Y20000D02*
D03*
X140000D02*
D03*
X120000Y210000D02*
D03*
X140000Y60000D02*
D03*
X14000Y210000D02*
D03*
X150000Y170000D02*
D03*
Y160000D02*
D03*
Y150000D02*
D03*
D47*
X24000Y145039D02*
D03*
D48*
Y174961D02*
D03*
D49*
X200551Y129803D02*
D03*
D50*
X30000Y80000D02*
D03*
D51*
X192000Y62000D02*
D03*
X182000Y72000D02*
D03*
X202000D02*
D03*
Y52000D02*
D03*
X182000D02*
D03*
D52*
X81213D02*
D03*
X62000D02*
D03*
D53*
X160000Y75000D02*
D03*
X140000D02*
D03*
X55000Y165000D02*
D03*
Y175000D02*
D03*
X160000Y180000D02*
D03*
Y190000D02*
D03*
X185000Y180000D02*
D03*
Y190000D02*
D03*
X48000Y49000D02*
D03*
X55000Y185000D02*
D03*
D54*
X50000Y123000D02*
D03*
X44000Y87000D02*
D03*
X55000Y130000D02*
D03*
X62000Y81000D02*
D03*
X101800Y85824D02*
D03*
X32000Y40000D02*
D03*
X76000Y44000D02*
D03*
X112000Y118000D02*
D03*
X129000Y117000D02*
D03*
X121000D02*
D03*
X154000Y125000D02*
D03*
X163000Y109000D02*
D03*
X171000D02*
D03*
X192000Y82000D02*
D03*
X55000Y120000D02*
D03*
Y125000D02*
D03*
X46000Y34000D02*
D03*
X71000Y80000D02*
D03*
X160000Y165000D02*
D03*
X150000Y142000D02*
D03*
X190000Y155000D02*
D03*
X86000Y64000D02*
D03*
X102000D02*
D03*
X68000Y44000D02*
D03*
X47000Y59000D02*
D03*
X25000Y33000D02*
D03*
D55*
X58169Y93169D02*
D03*
Y97500D02*
D03*
X62500Y101831D02*
D03*
X66831Y93169D02*
D03*
X58169Y101831D02*
D03*
X66831D02*
D03*
X62500Y97500D02*
D03*
X66831D02*
D03*
X62500Y93169D02*
D03*
M02*
