M48
;Layer_Color=9474304
;FILE_FORMAT=2:5
INCH,LZ
;TYPE=PLATED
T1F00S00C0.00787
T2F00S00C0.01181
T3F00S00C0.02800
T4F00S00C0.03150
T5F00S00C0.03543
T6F00S00C0.03937
T7F00S00C0.05906
T8F00S00C0.12500
%
T01
X0058169Y0093169
Y00975
Y0101831
X00625
X0066831
Y00975
Y0093169
X00625
Y00975
T02
X0086Y0064
X0102
X01018Y0085824
X0112Y0118
X0121Y0117
X0129
X0154Y0125
X0163Y0109
X0171
X0192Y0082
X0071Y008
X0062Y0081
X0044Y0087
X0047Y0059
X0046Y0034
X0032Y004
X0025Y0033
X0068Y0044
X0076
X0055Y012
Y0125
X005Y0123
X0055Y013
X015Y0142
X016Y0165
X019Y0155
T03
X014Y0075
X016
X0048Y0049
X0055Y0165
Y0175
Y0185
X016Y018
Y019
X0185
Y018
T04
X0024Y0145039
Y0174961
T05
X0251Y0103
X0223
Y0093
X019Y002
X018
X017
X016
X015
X014
X012
X011
X01
X009
X008
X007
X006
X005
X0054Y021
X0064
X0074
X0044
X0034
X0024
X0014
X0084
X0094
X0104
X012
X013
X014
X015
X016
X017
X018
X019
T06
X0105Y0045
X0115
X0125
X014Y006
X015
X016
X0081213Y0052
X0062
X003Y006
Y007
Y008
X008Y015
Y016
Y017
X009
X01
X011
X012
X013
X014
X015
Y016
X014
X013
X012
X011
X01
X009
Y015
X01
X011
X012
X013
X014
X015
T07
X0182Y0052
X0192Y0062
X0182Y0072
X0202
Y0052
T08
X0200551Y0129803
M30
